# xmcd
#
# Track frame offsets: 
#        150
#        8665
#        21105
#        45295
#        62739
#        77282
#        96277
#        109633
#        133652
#
# Disc length: 2008 seconds
#
# Revision: 0
# Processed by: cddbd v1.5.2PL0 Copyright (c) Steve Scherf et al.
# Submitted via: ExactAudioCopyFreeDBPlugin 1.0
#
DISCID=5e07d609
DTITLE=Nico Gómez - Truffle Dog
DYEAR=2016
DGENRE=Blues-Rock
TTITLE0=Truffle Dog
TTITLE1=Nobody Listens When You're Singing The Blues
TTITLE2=Don't Leave Me Now
TTITLE3=I'm Tired
TTITLE4=I Let You Down
TTITLE5=Drowning In The River
TTITLE6=No Matter What You Do
TTITLE7=I'll Be A Rider
TTITLE8=Falling In Love
EXTD=
EXTT0=
EXTT1=
EXTT2=
EXTT3=
EXTT4=
EXTT5=
EXTT6=
EXTT7=
EXTT8=
PLAYORDER=
